<svg width="20" height="20" viewBox="0 0 20 20" fill="none" xmlns="http://www.w3.org/2000/svg">
<path d="M3.06066 0.93934C2.47487 0.353553 1.52513 0.353553 0.93934 0.93934C0.353553 1.52513 0.353553 2.47487 0.93934 3.06066L3.06066 0.93934ZM16.9393 19.0607C17.5251 19.6464 18.4749 19.6464 19.0607 19.0607C19.6464 18.4749 19.6464 17.5251 19.0607 16.9393L16.9393 19.0607ZM0.93934 3.06066L16.9393 19.0607L19.0607 16.9393L3.06066 0.93934L0.93934 3.06066Z" fill="#EFEFF4"/>
<path d="M0.93934 16.9393C0.353553 17.5251 0.353553 18.4749 0.93934 19.0607C1.52513 19.6464 2.47487 19.6464 3.06066 19.0607L0.93934 16.9393ZM19.0607 3.06066C19.6464 2.47487 19.6464 1.52513 19.0607 0.939341C18.4749 0.353554 17.5251 0.353554 16.9393 0.939341L19.0607 3.06066ZM3.06066 19.0607L19.0607 3.06066L16.9393 0.939341L0.93934 16.9393L3.06066 19.0607Z" fill="#EFEFF4"/>
</svg>
