<svg width="33" height="33" viewBox="0 0 33 33" fill="none" xmlns="http://www.w3.org/2000/svg">
<path fill-rule="evenodd" clip-rule="evenodd" d="M13.2 0C12.9083 2.91394e-05 12.6285 0.115931 12.4222 0.322215C12.2159 0.528498 12.1 0.808271 12.1 1.1V3.00996C11.4042 3.23987 10.7307 3.5207 10.0783 3.8543L8.72266 2.49863C8.51636 2.29242 8.23661 2.17658 7.94492 2.17658C7.65323 2.17658 7.37349 2.29242 7.16719 2.49863L2.49863 7.16719C2.29242 7.37349 2.17658 7.65323 2.17658 7.94492C2.17658 8.23661 2.29242 8.51636 2.49863 8.72266L3.8543 10.0783C3.52162 10.7306 3.24112 11.4045 3.01211 12.1H1.1C0.808271 12.1 0.528498 12.2159 0.322215 12.4222C0.115931 12.6285 2.91394e-05 12.9083 0 13.2V19.8C2.91394e-05 20.0917 0.115931 20.3715 0.322215 20.5778C0.528498 20.7841 0.808271 20.9 1.1 20.9H3.00566C3.23431 21.5976 3.5171 22.2717 3.85 22.926L2.49863 24.2773C2.29242 24.4836 2.17658 24.7634 2.17658 25.0551C2.17658 25.3468 2.29242 25.6265 2.49863 25.8328L7.16719 30.5014C7.37349 30.7076 7.65323 30.8234 7.94492 30.8234C8.23661 30.8234 8.51636 30.7076 8.72266 30.5014L10.074 29.15C10.7278 29.4818 11.4031 29.7623 12.1 29.99V31.9C12.1 32.1917 12.2159 32.4715 12.4222 32.6778C12.6285 32.8841 12.9083 33 13.2 33H19.8C20.0917 33 20.3715 32.8841 20.5778 32.6778C20.7841 32.4715 20.9 32.1917 20.9 31.9V29.9943C21.5976 29.7657 22.2717 29.4829 22.926 29.15L24.2773 30.5014C24.4836 30.7076 24.7634 30.8234 25.0551 30.8234C25.3468 30.8234 25.6265 30.7076 25.8328 30.5014L30.5014 25.8328C30.7076 25.6265 30.8234 25.3468 30.8234 25.0551C30.8234 24.7634 30.7076 24.4836 30.5014 24.2773L29.15 22.926C29.4817 22.2721 29.7623 21.5969 29.99 20.9H31.9C32.1917 20.9 32.4715 20.7841 32.6778 20.5778C32.8841 20.3715 33 20.0917 33 19.8V13.2C33 12.9083 32.8841 12.6285 32.6778 12.4222C32.4715 12.2159 32.1917 12.1 31.9 12.1H29.9943C29.7657 11.4024 29.4829 10.7283 29.15 10.074L30.5014 8.72266C30.7076 8.51636 30.8234 8.23661 30.8234 7.94492C30.8234 7.65323 30.7076 7.37349 30.5014 7.16719L25.8328 2.49863C25.6265 2.29242 25.3468 2.17658 25.0551 2.17658C24.7634 2.17658 24.4836 2.29242 24.2773 2.49863L22.926 3.85C22.2722 3.51827 21.5969 3.23767 20.9 3.00996V1.1C20.9 0.808271 20.7841 0.528498 20.5778 0.322215C20.3715 0.115931 20.0917 2.91394e-05 19.8 0H13.2ZM14.3 2.2H18.7V3.73398C18.6999 3.97794 18.7809 4.21501 18.9302 4.40791C19.0796 4.60081 19.2888 4.7386 19.525 4.79961C20.6165 5.0819 21.6623 5.51441 22.6338 6.08652C22.8438 6.21032 23.0891 6.26083 23.331 6.23011C23.5729 6.19939 23.7977 6.08918 23.9701 5.9168L25.0551 4.83184L28.1682 7.94492L27.0832 9.02988C26.9108 9.20232 26.8006 9.42715 26.7699 9.66903C26.7392 9.91091 26.7897 10.1562 26.9135 10.3662C27.487 11.3375 27.9211 12.3854 28.2047 13.4771C28.2661 13.713 28.4041 13.9217 28.5969 14.0706C28.7898 14.2195 29.0266 14.3002 29.2703 14.3H30.8V18.7H29.266C29.0221 18.6999 28.785 18.7809 28.5921 18.9302C28.3992 19.0796 28.2614 19.2888 28.2004 19.525C27.918 20.6165 27.4856 21.6623 26.9135 22.6338C26.7897 22.8438 26.7392 23.0891 26.7699 23.331C26.8006 23.5729 26.9108 23.7977 27.0832 23.9701L28.1682 25.0551L25.0551 28.1682L23.9701 27.0832C23.7977 26.9108 23.5729 26.8006 23.331 26.7699C23.0891 26.7392 22.8438 26.7897 22.6338 26.9135C21.6625 27.487 20.6146 27.9211 19.5229 28.2047C19.287 28.2661 19.0783 28.4041 18.9294 28.5969C18.7805 28.7898 18.6998 29.0266 18.7 29.2703V30.8H14.3V29.266C14.3001 29.0221 14.2191 28.785 14.0698 28.5921C13.9204 28.3992 13.7112 28.2614 13.475 28.2004C12.3835 27.9181 11.3377 27.4856 10.3662 26.9135C10.1562 26.7897 9.91091 26.7392 9.66903 26.7699C9.42715 26.8006 9.20232 26.9108 9.02988 27.0832L7.94492 28.1682L4.83184 25.0551L5.9168 23.9701C6.08918 23.7977 6.19939 23.5729 6.23011 23.331C6.26083 23.0891 6.21032 22.8438 6.08652 22.6338C5.51305 21.6625 5.07891 20.6146 4.79531 19.5229C4.7339 19.287 4.59594 19.0783 4.40307 18.9294C4.21021 18.7805 3.97336 18.6998 3.72969 18.7H2.2V14.3H3.73398C3.97729 14.2998 4.21364 14.2189 4.40607 14.07C4.5985 13.9211 4.73614 13.7126 4.79746 13.4771C5.0822 12.3873 5.51931 11.3441 6.09297 10.3748C6.2173 10.1645 6.26811 9.91884 6.23738 9.67649C6.20665 9.43414 6.09613 9.20892 5.92324 9.03633L4.83184 7.94492L7.94492 4.83184L9.03633 5.92324C9.20918 6.09579 9.43453 6.20591 9.67687 6.23625C9.91921 6.26659 10.1648 6.21543 10.3748 6.09082C11.3439 5.5158 12.3893 5.07916 13.4793 4.79316C13.7143 4.73144 13.9223 4.59363 14.0708 4.40124C14.2193 4.20884 14.2999 3.97271 14.3 3.72969V2.2ZM16.5 6.6C15.5642 6.60021 14.6352 6.73596 13.7393 6.99746C13.5941 7.03189 13.4576 7.09547 13.3378 7.18433C13.218 7.27319 13.1175 7.38547 13.0425 7.51436C12.9675 7.64324 12.9194 7.78604 12.9013 7.93407C12.8832 8.08211 12.8953 8.23228 12.937 8.37547C12.9787 8.51866 13.0491 8.65187 13.1439 8.76702C13.2387 8.88216 13.3559 8.97683 13.4884 9.04528C13.6209 9.11372 13.7659 9.1545 13.9147 9.16515C14.0634 9.1758 14.2128 9.15609 14.3537 9.10723C15.052 8.90351 15.7751 8.8 16.5 8.8C20.7654 8.79917 24.2 12.2344 24.2 16.5C24.2 20.7656 20.7656 24.2 16.5 24.2C12.2344 24.2 8.79797 20.765 8.8 16.5C8.80034 15.778 8.90633 15.0566 9.11152 14.358C9.15854 14.2177 9.17677 14.0693 9.16511 13.9218C9.15344 13.7743 9.11213 13.6306 9.04365 13.4994C8.97517 13.3682 8.88092 13.2522 8.76655 13.1583C8.65217 13.0644 8.52003 12.9945 8.37802 12.9528C8.23601 12.9112 8.08705 12.8986 7.94007 12.9159C7.79309 12.9331 7.65111 12.9799 7.52261 13.0533C7.39412 13.1267 7.28176 13.2253 7.19227 13.3432C7.10277 13.4611 7.03797 13.5958 7.00176 13.7393C6.73921 14.6331 6.60044 15.5624 6.6 16.5C6.59741 21.9552 11.0454 26.4 16.5 26.4C21.9546 26.4 26.4 21.9546 26.4 16.5C26.4 11.0454 21.9548 6.59896 16.5 6.6ZM10.2932 9.17813C10.1462 9.17615 10.0003 9.20365 9.86415 9.259C9.72799 9.31435 9.6043 9.39643 9.50039 9.50039C9.29415 9.70667 9.17829 9.98643 9.17829 10.2781C9.17829 10.5698 9.29415 10.8496 9.50039 11.0559C9.70667 11.2621 9.98643 11.378 10.2781 11.378C10.5698 11.378 10.8496 11.2621 11.0559 11.0559C11.2621 10.8496 11.378 10.5698 11.378 10.2781C11.378 9.98643 11.2621 9.70667 11.0559 9.50039C10.8533 9.29774 10.5797 9.18211 10.2932 9.17813Z" fill="#EFEFF4"/>
</svg>
